<svg width="204" height="48" viewBox="0 0 204 48" fill="none" xmlns="http://www.w3.org/2000/svg">
<g clip-path="url(#clip0_884_2663)">
<path d="M31.8495 27.2095C35.4277 27.1972 38.856 25.7594 41.3868 23.2098C43.9175 20.6601 45.3455 17.2054 45.3593 13.5989H52.2796C52.275 19.0624 50.1224 24.3015 46.2931 28.1686C42.4639 32.0358 37.2702 34.2159 31.8495 34.2313H30.0439V27.2095H31.8495Z" fill="#2A55B4"/>
<path d="M30.0441 27.2271H3.88965V34.2021H30.0441V27.2271Z" fill="#FF5917"/>
<path d="M20.4301 20.5857C16.8458 20.598 13.4123 22.0406 10.8806 24.5978C8.34882 27.1551 6.92492 30.6188 6.92033 34.2314H0C0.0138003 28.775 2.17086 23.5462 5.99943 19.6884C9.82799 15.8307 15.0165 13.6581 20.4301 13.6458H27.1879C25.9263 15.7479 25.2597 18.1581 25.2604 20.6149L20.4301 20.5857Z" fill="#11337A"/>
<path d="M13.5098 40.8436C17.0915 40.8313 20.5226 39.3901 23.0531 36.8352C25.5836 34.2804 27.0076 30.8196 27.0137 27.2096H33.934C33.9218 32.666 31.7662 37.8955 27.9387 41.7543C24.1112 45.6131 18.9234 47.7872 13.5098 47.8011V40.8436Z" fill="#2A55B4"/>
<path fill-rule="evenodd" clip-rule="evenodd" d="M45.3599 13.6165H27.1882C25.9267 15.7186 25.2601 18.1288 25.2607 20.5856H43.4324C44.694 18.4834 45.3606 16.0733 45.3599 13.6165Z" fill="#FF5917"/>
<path d="M38.77 6.97501C35.1918 6.98734 31.7635 8.42509 29.2328 10.9747C26.702 13.5244 25.2741 16.9791 25.2603 20.5856H18.3516C18.3684 15.1322 20.5248 9.90692 24.3502 6.0502C28.1756 2.19349 33.3594 0.0185175 38.77 0V6.97501Z" fill="#11337A"/>
<path d="M126.25 24.9333L126.767 27.1803H126.941L127.312 24.904L129.484 16.8289H133.304L128.955 29.831C128.595 30.9077 128.247 31.8829 127.91 32.7568C127.621 33.5712 127.254 34.3552 126.813 35.0974C126.471 35.6823 126.019 36.1949 125.483 36.6071C124.977 36.9729 124.365 37.1619 123.742 37.1454C122.922 37.1831 122.106 37.0142 121.367 36.6539L122.052 33.652C122.325 33.7663 122.617 33.8259 122.912 33.8276C123.394 33.8032 123.849 33.5938 124.183 33.2424C124.688 32.6749 125.011 31.9674 125.112 31.212L119.132 16.7938H123.597L126.25 24.9333ZM112.084 28.4793C112.7 28.5119 113.306 28.3232 113.797 27.9468C114.245 27.5377 114.556 26.9977 114.685 26.402V20.293C114.421 20.0791 114.12 19.9164 113.797 19.8132C113.387 19.6965 112.962 19.6432 112.537 19.6552C112.088 19.6253 111.638 19.7067 111.227 19.8923C110.816 20.078 110.457 20.3622 110.18 20.7202C109.657 21.4341 109.39 22.657 109.39 24.3832C109.345 25.4137 109.567 26.4382 110.035 27.3558C110.237 27.7183 110.536 28.016 110.899 28.2148C111.261 28.4135 111.672 28.5052 112.084 28.4793ZM118.401 26.1738C118.401 26.9755 118.401 27.783 118.43 28.5905C118.459 29.4905 118.546 30.3877 118.691 31.2763H116.026L115.515 29.398H115.399C115.007 30.081 114.439 30.6449 113.756 31.0306C112.981 31.4571 112.108 31.671 111.225 31.6508C110.439 31.6939 109.653 31.5549 108.929 31.2445C108.204 30.9341 107.56 30.4606 107.045 29.8603C106.058 28.69 105.562 26.8253 105.558 24.2662C105.558 21.8086 106.112 19.8971 107.219 18.5317C108.326 17.1664 109.948 16.4837 112.084 16.4837C112.572 16.4775 113.059 16.5107 113.541 16.5832C113.938 16.656 114.327 16.7677 114.702 16.9167V11.0652H118.418L118.401 26.1738ZM95.0503 16.8114V25.0035C94.9937 25.8712 95.1368 26.7403 95.4683 27.5431C95.635 27.8151 95.8757 28.033 96.1619 28.171C96.448 28.309 96.7675 28.3612 97.0822 28.3213C97.721 28.3387 98.3428 28.1131 98.8239 27.6893C99.2901 27.2616 99.6483 26.728 99.869 26.1328V16.8289H103.585V26.8643C103.584 27.646 103.623 28.4272 103.701 29.2049C103.766 29.9007 103.881 30.591 104.043 31.2705H101.257L100.6 29.1347H100.484C100.032 29.8819 99.4041 30.505 98.6556 30.9486C97.8166 31.4486 96.8548 31.7001 95.8805 31.6742C95.2208 31.6831 94.564 31.5843 93.9356 31.3817C93.3832 31.2016 92.8897 30.874 92.5074 30.4337C92.0858 29.9106 91.7862 29.2986 91.6307 28.6431C91.414 27.7194 91.3146 26.7717 91.3346 25.8227V16.8289L95.0503 16.8114ZM80.6232 16.8114H82.5972V14.1197L86.3186 13.0547V16.8289H89.802V20.0005H86.3186V25.536C86.2763 26.2645 86.3769 26.9942 86.6147 27.6835C86.7173 27.8934 86.88 28.0676 87.0818 28.1833C87.2836 28.2991 87.5153 28.3513 87.7468 28.333C88.0794 28.338 88.4113 28.2987 88.7337 28.216C89.0519 28.1259 89.3625 28.0104 89.6626 27.8707L90.3187 30.7555C89.7425 31.0296 89.1393 31.2414 88.5189 31.3875C87.8359 31.5628 87.1337 31.6513 86.4289 31.6508C85.9008 31.6951 85.3694 31.6268 84.8693 31.4504C84.3691 31.274 83.9115 30.9933 83.5261 30.6268C82.9029 29.9441 82.5933 28.8245 82.5972 27.268V20.0005H80.6232V16.8114ZM76.2922 25.8052C76.3013 25.5202 76.2454 25.2368 76.1286 24.9771C76.0118 24.7174 75.8374 24.4882 75.6188 24.3072C75.1045 23.885 74.5387 23.531 73.9351 23.2539C73.2559 22.9379 72.5243 22.6102 71.729 22.2767C70.9525 21.9461 70.2145 21.5301 69.5286 21.0362C68.851 20.5441 68.2768 19.9216 67.8392 19.2046C67.3634 18.3528 67.1322 17.3843 67.1715 16.4076C67.1528 15.5325 67.317 14.6633 67.6534 13.8564C67.968 13.1534 68.4435 12.5358 69.041 12.0541C69.6793 11.5656 70.4075 11.2096 71.1832 11.0067C72.0791 10.768 73.0027 10.6519 73.9293 10.6614C75.0338 10.6549 76.1363 10.7568 77.2211 10.9657C78.1107 11.1161 78.9697 11.4126 79.764 11.8434L78.5332 15.1612C77.9439 14.8227 77.308 14.5742 76.6464 14.424C75.7587 14.1952 74.8455 14.0831 73.9293 14.0904C73.1885 14.0434 72.4522 14.2361 71.8277 14.6405C71.5975 14.8042 71.4101 15.0218 71.2817 15.2745C71.1533 15.5273 71.0876 15.8077 71.0903 16.0916C71.0835 16.3712 71.1407 16.6487 71.2575 16.9024C71.3743 17.1561 71.5476 17.3792 71.7638 17.5545C72.2801 17.9799 72.8478 18.3378 73.4533 18.6195C74.1325 18.9472 74.864 19.2807 75.6536 19.626C76.432 19.9636 77.1717 20.3854 77.8597 20.884C78.5338 21.3713 79.1059 21.9877 79.5434 22.698C80.019 23.5138 80.2528 24.45 80.2168 25.3956C80.2411 26.3496 80.0609 27.2976 79.6885 28.175C79.3517 28.9315 78.8425 29.5971 78.2023 30.1177C77.5174 30.6664 76.7264 31.065 75.88 31.288C74.904 31.5446 73.8987 31.6705 72.8901 31.6625C71.6207 31.6802 70.3538 31.5446 69.1164 31.2588C68.2879 31.0806 67.4817 30.8098 66.7129 30.4513L67.9727 27.0749C68.2355 27.2169 68.507 27.342 68.7855 27.4494C69.1545 27.5986 69.5327 27.7236 69.9176 27.8239C70.355 27.9464 70.7989 28.0441 71.2471 28.1165C71.7233 28.1924 72.2048 28.2296 72.6869 28.2277C73.6157 28.2873 74.5425 28.0846 75.3633 27.6425C75.6681 27.4534 75.9157 27.1839 76.0794 26.8631C76.2432 26.5424 76.3168 26.1826 76.2922 25.8227V25.8052Z" fill="#11337A"/>
<path d="M193.41 16.829H195.384V14.1197L199.105 13.0547V16.829H202.589V20.0005H199.105V25.536C199.063 26.2645 199.164 26.9943 199.401 27.6835C199.504 27.8935 199.667 28.0676 199.869 28.1834C200.07 28.2992 200.302 28.3513 200.533 28.3331C200.866 28.3381 201.198 28.2987 201.52 28.216C201.839 28.1269 202.15 28.0114 202.449 27.8708L203.105 30.7556C202.529 31.0296 201.926 31.2415 201.306 31.3875C200.623 31.5629 199.92 31.6513 199.216 31.6509C198.688 31.6952 198.156 31.6269 197.656 31.4504C197.156 31.274 196.698 30.9934 196.313 30.6268C195.697 29.9422 195.384 28.8246 195.384 27.2681V20.0005H193.41V16.829ZM192.51 20.3399C192 20.144 191.46 20.0371 190.914 20.0239C190.311 20.0053 189.719 20.193 189.236 20.5564C188.797 20.9033 188.482 21.3835 188.336 21.9256V31.2471H184.62V16.829H187.523L187.953 18.7366H188.069C188.348 18.0758 188.804 17.5064 189.387 17.0923C189.959 16.6978 190.639 16.4932 191.332 16.5071C191.906 16.5216 192.474 16.6283 193.015 16.8231L192.51 20.3399ZM175.685 28.3799C176.314 28.4131 176.937 28.2362 177.456 27.8766C177.852 27.5872 178.184 27.2187 178.431 26.7941V24.9216C177.863 24.8723 177.292 24.8723 176.725 24.9216C176.236 24.9482 175.752 25.0346 175.285 25.1791C174.908 25.2888 174.563 25.4896 174.28 25.7642C174.158 25.8888 174.062 26.037 173.998 26.1999C173.935 26.3629 173.904 26.5371 173.909 26.7122C173.895 26.9434 173.93 27.1749 174.011 27.3917C174.092 27.6084 174.217 27.8056 174.379 27.9703C174.747 28.2688 175.214 28.4152 175.685 28.3799ZM170.965 17.654C171.836 17.2742 172.748 16.9992 173.682 16.8348C174.765 16.6275 175.866 16.5256 176.968 16.5305C177.813 16.5089 178.655 16.6316 179.459 16.8933C180.051 17.0812 180.584 17.4203 181.008 17.8776C181.431 18.335 181.729 18.895 181.874 19.5031C182.044 20.18 182.126 20.8763 182.118 21.5746C182.118 22.423 182.089 23.2715 182.031 24.1258C181.973 24.9801 181.944 25.8228 181.932 26.6478C181.921 27.4729 181.932 28.2804 182.002 29.0586C182.056 29.8088 182.2 30.5496 182.431 31.2647H179.401L178.82 29.2751H178.675C178.262 29.8964 177.722 30.4212 177.09 30.8141C176.297 31.2773 175.388 31.5027 174.472 31.4636C173.857 31.4737 173.245 31.3706 172.666 31.1593C172.155 30.9733 171.688 30.6801 171.296 30.2992C170.914 29.9218 170.612 29.4698 170.408 28.9709C170.192 28.4258 170.086 27.8431 170.094 27.2564C170.067 26.4701 170.269 25.693 170.675 25.0211C171.096 24.3865 171.68 23.8789 172.364 23.5524C173.192 23.147 174.081 22.8839 174.994 22.7741C176.128 22.6243 177.273 22.5812 178.414 22.6454C178.59 21.8604 178.509 21.039 178.182 20.3048C177.897 19.8308 177.259 19.5967 176.266 19.5967C175.475 19.6006 174.686 19.6789 173.909 19.8308C173.204 19.9386 172.516 20.1352 171.859 20.4159L170.965 17.654ZM156.765 31.2471V23.4061C156.821 22.4487 156.695 21.4893 156.393 20.5798C156.253 20.2962 156.03 20.0633 155.753 19.9134C155.477 19.7635 155.161 19.704 154.849 19.743C154.277 19.7152 153.715 19.9052 153.275 20.2755C152.865 20.6507 152.55 21.1205 152.358 21.6448V31.2471H148.643V16.829H151.545L151.969 18.7366H152.085C152.542 18.1014 153.108 17.5543 153.757 17.1215C154.541 16.6291 155.453 16.3864 156.376 16.4252C157.165 16.3984 157.945 16.6016 158.622 17.0104C159.267 17.4749 159.744 18.1383 159.981 18.9004C160.392 18.1761 160.972 17.5635 161.67 17.1157C162.417 16.6541 163.28 16.4223 164.155 16.4486C164.848 16.4331 165.538 16.5319 166.199 16.7412C166.749 16.9202 167.23 17.268 167.575 17.736C167.969 18.2992 168.236 18.9422 168.359 19.6201C168.551 20.6086 168.639 21.6149 168.62 22.622V31.2471H164.887V23.1428C164.929 22.2775 164.809 21.4119 164.533 20.5915C164.39 20.2991 164.16 20.0595 163.874 19.9071C163.588 19.7548 163.262 19.6973 162.942 19.743C162.363 19.7103 161.794 19.9078 161.357 20.2931C160.935 20.7014 160.633 21.22 160.486 21.7911V31.2471H156.765ZM142.831 25.8228C142.839 25.5379 142.782 25.255 142.666 24.9955C142.549 24.736 142.375 24.5066 142.158 24.3248C141.642 23.9013 141.074 23.5473 140.468 23.2715C139.795 22.9555 139.057 22.6278 138.268 22.2943C137.491 21.9649 136.753 21.5488 136.068 21.0538C135.388 20.5634 134.814 19.9406 134.378 19.2222C133.9 18.371 133.667 17.4025 133.705 16.4252C133.685 15.5495 133.851 14.6796 134.192 13.874C134.505 13.1699 134.981 12.5518 135.58 12.0717C136.213 11.5773 136.937 11.2152 137.711 11.0067C138.606 10.7677 139.53 10.6516 140.457 10.6615C141.559 10.6549 142.66 10.7568 143.743 10.9657C144.634 11.1152 145.495 11.4118 146.291 11.8435L145.06 15.1613C144.471 14.8237 143.835 14.5753 143.174 14.424C142.286 14.1959 141.373 14.0838 140.457 14.0905C139.716 14.0434 138.979 14.2361 138.355 14.6405C138.125 14.8042 137.937 15.0218 137.809 15.2746C137.681 15.5273 137.615 15.8077 137.618 16.0917C137.614 16.3683 137.673 16.6421 137.789 16.8925C137.906 17.1429 138.078 17.3633 138.291 17.537C138.807 17.9624 139.375 18.3203 139.981 18.602C140.654 18.9297 141.391 19.2632 142.181 19.6084C142.957 19.9461 143.695 20.368 144.381 20.8665C145.058 21.3519 145.633 21.9686 146.071 22.6805C146.544 23.4974 146.777 24.4328 146.744 25.378C146.765 26.3318 146.585 27.2792 146.216 28.1575C145.877 28.9146 145.366 29.5803 144.724 30.1002C144.039 30.6489 143.248 31.0475 142.402 31.2705C141.427 31.5271 140.424 31.653 139.417 31.645C138.146 31.663 136.877 31.5274 135.638 31.2413C134.81 31.0613 134.004 30.7905 133.234 30.4338L134.494 27.0574C134.759 27.1993 135.032 27.3243 135.313 27.4319C135.68 27.5803 136.056 27.7054 136.439 27.8064C136.877 27.9283 137.32 28.026 137.769 28.099C138.247 28.1747 138.73 28.2119 139.214 28.2102C140.143 28.2691 141.07 28.0665 141.891 27.625C142.193 27.4371 142.439 27.1705 142.604 26.8534C142.768 26.5362 142.845 26.1801 142.825 25.8228H142.831Z" fill="#FF5917"/>
<path d="M202.785 45.0917C202.847 45.089 202.908 45.0996 202.965 45.1228C203.022 45.146 203.074 45.1813 203.116 45.2263C203.16 45.2699 203.194 45.322 203.217 45.3793C203.24 45.4366 203.251 45.4981 203.25 45.5599C203.25 45.6844 203.202 45.8042 203.116 45.8934C203.074 45.9392 203.023 45.9754 202.966 45.9996C202.909 46.0238 202.847 46.0355 202.785 46.0338C202.725 46.0362 202.664 46.0253 202.608 46.0021C202.552 45.9789 202.502 45.9438 202.46 45.8993C202.417 45.8543 202.384 45.8011 202.362 45.7427C202.34 45.6844 202.33 45.6222 202.332 45.5599C202.33 45.4984 202.34 45.4371 202.362 45.3798C202.384 45.3224 202.417 45.2702 202.46 45.2263C202.502 45.1818 202.552 45.1467 202.608 45.1235C202.664 45.1003 202.725 45.0894 202.785 45.0917ZM202.454 38.8072H203.128V40.5627L203.023 43.8278H202.547L202.454 40.5627V38.8072ZM198.803 40.4807C199.079 40.4677 199.355 40.5131 199.613 40.6138C199.871 40.7146 200.105 40.8686 200.3 41.0659C200.675 41.4957 200.867 42.057 200.835 42.6283V45.9344H200.132V42.7511C200.157 42.3075 200.007 41.872 199.714 41.5399C199.561 41.3913 199.378 41.2766 199.178 41.2031C198.978 41.1295 198.765 41.0988 198.553 41.1127C198.299 41.1048 198.046 41.1531 197.812 41.2542C197.579 41.3553 197.37 41.5067 197.2 41.6979C196.854 42.1327 196.679 42.6802 196.707 43.2368V45.9344H196.004V42.7511C196.029 42.3075 195.879 41.872 195.586 41.5399C195.433 41.3913 195.25 41.2766 195.05 41.2031C194.85 41.1295 194.638 41.0988 194.425 41.1127C194.17 41.1039 193.916 41.1518 193.681 41.2529C193.447 41.354 193.237 41.5059 193.067 41.6979C192.719 42.1318 192.541 42.6795 192.567 43.2368V45.9344H191.876V40.4866H192.567V41.7681C192.723 41.3654 193.004 41.0245 193.369 40.7967C193.764 40.5748 194.21 40.4599 194.663 40.4632C195.122 40.4449 195.573 40.5807 195.946 40.8494C196.294 41.1164 196.535 41.5006 196.626 41.9319C196.76 41.4869 197.04 41.1011 197.421 40.8377C197.839 40.5898 198.318 40.466 198.803 40.4807ZM187.464 45.4019C187.897 45.4166 188.324 45.2982 188.689 45.0625C189.021 44.84 189.261 44.5028 189.363 44.1145V43.3656H187.621C187.244 43.3404 186.867 43.4236 186.535 43.6055C186.416 43.6803 186.318 43.786 186.253 43.9115C186.188 44.037 186.157 44.1778 186.164 44.3194C186.159 44.4693 186.189 44.6184 186.251 44.7545C186.314 44.8907 186.407 45.0102 186.524 45.1035C186.792 45.3123 187.125 45.4181 187.464 45.4019ZM189.374 45.9519V45.0391C189.166 45.3501 188.877 45.5972 188.538 45.753C188.171 45.9106 187.776 45.9902 187.377 45.987C187.043 45.9921 186.713 45.918 186.413 45.7705C186.148 45.6405 185.925 45.4376 185.769 45.1854C185.617 44.9311 185.539 44.6394 185.543 44.3428C185.534 44.1269 185.579 43.9123 185.673 43.7182C185.768 43.5242 185.908 43.3568 186.082 43.231C186.522 42.9337 187.046 42.7898 187.574 42.8214H189.386V42.4235C189.398 42.24 189.37 42.0562 189.305 41.8845C189.24 41.7128 189.139 41.5573 189.008 41.4287C188.696 41.1703 188.297 41.0426 187.894 41.0718C187.258 41.0957 186.648 41.3255 186.152 41.7271L185.844 41.2473C186.166 41.0077 186.518 40.811 186.889 40.6622C187.253 40.5327 187.636 40.4693 188.022 40.4749C188.571 40.4405 189.113 40.6184 189.537 40.9723C189.721 41.1469 189.865 41.3599 189.959 41.5963C190.054 41.8328 190.096 42.0871 190.083 42.3415V45.9461L189.374 45.9519ZM183.917 42.915C183.903 42.4042 183.695 41.9183 183.336 41.5574C183.158 41.388 182.949 41.2562 182.719 41.1697C182.49 41.0833 182.246 41.044 182.001 41.0542C181.498 41.0384 181.008 41.221 180.637 41.5633C180.268 41.9197 180.045 42.4016 180.01 42.915H183.917ZM182.007 40.4807C182.367 40.4553 182.729 40.5151 183.063 40.6553C183.396 40.7955 183.693 41.0122 183.929 41.2883C184.394 41.9094 184.612 42.6841 184.538 43.4592H180.027C180.054 43.9925 180.282 44.4952 180.666 44.8635C181.046 45.2222 181.55 45.4156 182.071 45.4019C182.399 45.4037 182.725 45.3401 183.029 45.2146C183.319 45.0939 183.58 44.9124 183.795 44.6821L184.184 45.08C183.92 45.364 183.599 45.5893 183.243 45.7413C182.858 45.8984 182.446 45.978 182.03 45.9753C181.543 45.9844 181.062 45.8633 180.637 45.6242C180.234 45.3986 179.904 45.0616 179.685 44.6529C179.447 44.2177 179.327 43.7275 179.336 43.231C179.329 42.7347 179.449 42.2448 179.685 41.809C179.903 41.3986 180.233 41.0595 180.637 40.8318C181.055 40.595 181.527 40.4739 182.007 40.4807ZM176.846 41.7739C177.003 41.3858 177.272 41.0538 177.618 40.8201C177.979 40.5958 178.395 40.4782 178.82 40.4807V41.1361C178.568 41.1208 178.316 41.158 178.079 41.2457C177.842 41.3333 177.626 41.4693 177.444 41.6452C177.087 42.0241 176.88 42.5217 176.863 43.0437V45.9695H176.172V40.5217H176.846V41.7739ZM171.348 45.3902C171.718 45.3979 172.084 45.3028 172.404 45.1152C172.711 44.9337 172.962 44.6705 173.13 44.3545C173.302 44.0073 173.391 43.6247 173.391 43.2368C173.391 42.8489 173.302 42.4663 173.13 42.1192C172.963 41.7997 172.712 41.5326 172.404 41.3468C172.084 41.1571 171.719 41.0599 171.348 41.0659C170.983 41.059 170.624 41.1538 170.309 41.3396C169.995 41.5255 169.737 41.7952 169.565 42.1192C169.383 42.4627 169.291 42.8474 169.298 43.2368C169.292 43.6254 169.382 44.0096 169.56 44.3545C169.728 44.6722 169.981 44.9358 170.291 45.1152C170.603 45.2971 170.958 45.3921 171.319 45.3902H171.348ZM174.082 38.2396V45.9344H173.362V44.7055C173.171 45.1005 172.87 45.4315 172.497 45.6593C172.102 45.8878 171.652 46.0031 171.197 45.9929C170.719 46.0013 170.248 45.88 169.832 45.6418C169.437 45.4067 169.115 45.0639 168.904 44.6529C168.682 44.2083 168.571 43.7165 168.578 43.2193C168.569 42.723 168.683 42.2324 168.909 41.7915C169.126 41.3872 169.447 41.0496 169.838 40.8143C170.248 40.577 170.713 40.4557 171.185 40.4632C171.644 40.452 172.097 40.5717 172.491 40.8084C172.867 41.0343 173.17 41.3658 173.362 41.7622V38.2513L174.082 38.2396ZM163.562 38.2396H164.253V45.9344H163.562V38.2396ZM159.075 45.4019C159.506 45.4172 159.931 45.2988 160.294 45.0625C160.627 44.8407 160.869 44.5035 160.973 44.1145V43.3656H159.231C158.856 43.3402 158.481 43.4234 158.151 43.6055C158.031 43.6794 157.933 43.7849 157.868 43.9106C157.802 44.0363 157.772 44.1776 157.78 44.3194C157.774 44.4689 157.803 44.6178 157.864 44.754C157.926 44.8902 158.018 45.0099 158.134 45.1035C158.395 45.3053 158.717 45.4107 159.046 45.4019H159.075ZM160.979 45.9519V45.0391C160.771 45.3501 160.481 45.5972 160.143 45.753C159.766 45.9129 159.361 45.9926 158.953 45.987C158.619 45.9915 158.289 45.9173 157.989 45.7705C157.724 45.6405 157.5 45.4376 157.344 45.1854C157.193 44.9311 157.114 44.6394 157.118 44.3428C157.11 44.1269 157.155 43.9123 157.249 43.7182C157.343 43.5242 157.484 43.3568 157.658 43.231C158.098 42.9345 158.622 42.7907 159.15 42.8214H160.967V42.4235C160.978 42.2396 160.949 42.0556 160.883 41.884C160.817 41.7123 160.715 41.557 160.584 41.4287C160.271 41.1703 159.873 41.0426 159.469 41.0718C158.834 41.0957 158.223 41.3255 157.728 41.7271L157.42 41.2473C157.739 41.0064 158.088 40.8096 158.459 40.6622C158.832 40.5295 159.225 40.4661 159.62 40.4749C160.17 40.4423 160.711 40.6199 161.136 40.9723C161.318 41.1486 161.46 41.3618 161.554 41.5978C161.648 41.8339 161.692 42.0874 161.681 42.3415V45.9461L160.979 45.9519ZM155.887 41.7388C155.673 41.5286 155.42 41.3634 155.142 41.2529C154.863 41.1424 154.566 41.0888 154.267 41.0952C153.901 41.0901 153.54 41.1852 153.222 41.3702C152.915 41.544 152.665 41.8043 152.503 42.1192C152.331 42.4643 152.242 42.845 152.242 43.231C152.242 43.617 152.331 43.9977 152.503 44.3428C152.665 44.6592 152.915 44.9214 153.222 45.0976C153.54 45.2826 153.901 45.3776 154.267 45.3726C154.598 45.3749 154.925 45.3113 155.231 45.1854C155.515 45.0635 155.768 44.8773 155.969 44.6412L156.357 45.0566C156.116 45.3545 155.804 45.5877 155.452 45.7354C155.066 45.8984 154.651 45.9801 154.233 45.9753C153.749 45.9837 153.272 45.8626 152.851 45.6242C152.44 45.4008 152.103 45.0612 151.881 44.647C151.653 44.2096 151.533 43.7225 151.533 43.228C151.533 42.7335 151.653 42.2465 151.881 41.809C152.1 41.3986 152.43 41.0595 152.833 40.8318C153.255 40.5935 153.732 40.4724 154.215 40.4807C154.612 40.4735 155.007 40.545 155.376 40.6914C155.711 40.8226 156.015 41.0218 156.27 41.2766L155.887 41.7388ZM149.768 38.4444C149.831 38.4419 149.894 38.4532 149.952 38.4774C150.01 38.5017 150.062 38.5383 150.105 38.5849C150.151 38.6306 150.187 38.6854 150.211 38.7458C150.235 38.8062 150.246 38.8709 150.244 38.9359C150.245 39.0009 150.234 39.0654 150.21 39.1257C150.186 39.186 150.15 39.2409 150.105 39.287C150.062 39.334 150.01 39.3714 149.952 39.3966C149.894 39.4218 149.831 39.4343 149.768 39.4333C149.703 39.4352 149.638 39.4232 149.578 39.398C149.518 39.3728 149.464 39.3349 149.42 39.287C149.374 39.2409 149.339 39.186 149.315 39.1257C149.291 39.0654 149.279 39.0009 149.28 38.9359C149.279 38.871 149.29 38.8063 149.314 38.746C149.338 38.6856 149.374 38.6308 149.42 38.5848C149.465 38.5389 149.52 38.5027 149.58 38.4786C149.639 38.4544 149.704 38.4428 149.768 38.4444ZM149.414 40.5042H150.105V45.9344H149.385L149.414 40.5042ZM144.607 45.3902C144.977 45.3979 145.343 45.3028 145.663 45.1152C145.97 44.9337 146.221 44.6705 146.389 44.3545C146.561 44.0073 146.65 43.6247 146.65 43.2368C146.65 42.8489 146.561 42.4663 146.389 42.1192C146.222 41.7997 145.971 41.5326 145.663 41.3468C145.344 41.1571 144.978 41.0599 144.607 41.0659C144.242 41.059 143.883 41.1538 143.569 41.3396C143.254 41.5255 142.997 41.7952 142.825 42.1192C142.643 42.4627 142.551 42.8474 142.557 43.2368C142.551 43.6254 142.641 44.0096 142.819 44.3545C142.987 44.6722 143.24 44.9358 143.55 45.1152C143.862 45.2971 144.217 45.3921 144.578 45.3902H144.607ZM147.341 38.2396V45.9344H146.65V44.7055C146.459 45.1005 146.158 45.4315 145.785 45.6593C145.39 45.8878 144.94 46.0031 144.485 45.9929C144.007 46.0013 143.536 45.88 143.121 45.6418C142.725 45.4081 142.405 45.0648 142.198 44.6529C141.972 44.2097 141.858 43.7173 141.867 43.2193C141.858 42.723 141.971 42.2324 142.198 41.7915C142.414 41.3872 142.735 41.0496 143.126 40.8143C143.536 40.577 144.001 40.4557 144.473 40.4632C144.932 40.4514 145.385 40.5711 145.78 40.8084C146.156 41.0343 146.458 41.3658 146.65 41.7622V38.2513L147.341 38.2396ZM140.375 42.9208C140.361 42.4101 140.153 41.9242 139.794 41.5633C139.616 41.3936 139.406 41.2616 139.177 41.1751C138.948 41.0887 138.703 41.0495 138.459 41.0601C137.957 41.0445 137.47 41.2272 137.1 41.5691C136.728 41.9236 136.502 42.4062 136.467 42.9208H140.375ZM138.47 40.4866C138.83 40.4621 139.19 40.5223 139.523 40.6625C139.855 40.8026 140.151 41.0189 140.386 41.2941C140.852 41.9152 141.07 42.69 140.996 43.465H136.438C136.467 43.999 136.698 44.5017 137.083 44.8694C137.461 45.2277 137.963 45.4211 138.482 45.4077C138.81 45.4101 139.136 45.3464 139.44 45.2205C139.73 45.0998 139.991 44.9183 140.206 44.688L140.595 45.0859C140.331 45.3699 140.01 45.5951 139.655 45.7471C139.269 45.9043 138.857 45.9838 138.441 45.9812C137.954 45.9902 137.473 45.8691 137.048 45.6301C136.645 45.4045 136.315 45.0674 136.096 44.6587C135.858 44.2235 135.738 43.7333 135.747 43.2368C135.74 42.7405 135.86 42.2507 136.096 41.8149C136.314 41.4044 136.645 41.0654 137.048 40.8377C137.467 40.5981 137.942 40.4749 138.424 40.4807L138.47 40.4866ZM132.485 40.4866C132.761 40.4736 133.037 40.5189 133.295 40.6197C133.553 40.7204 133.787 40.8744 133.983 41.0718C134.357 41.5015 134.549 42.0628 134.517 42.6341V45.9344H133.768V42.7511C133.793 42.3075 133.643 41.872 133.35 41.5399C133.196 41.3913 133.014 41.2766 132.814 41.2031C132.614 41.1295 132.401 41.0988 132.189 41.1127C131.933 41.1039 131.679 41.1518 131.445 41.2529C131.21 41.354 131 41.5059 130.83 41.6979C130.488 42.1345 130.315 42.6813 130.342 43.2368V45.9344H129.64V42.7511C129.665 42.3075 129.515 41.872 129.222 41.5399C129.068 41.3913 128.886 41.2766 128.686 41.2031C128.486 41.1295 128.273 41.0988 128.061 41.1127C127.805 41.1031 127.55 41.1505 127.314 41.2517C127.078 41.3528 126.867 41.5052 126.696 41.6979C126.353 42.134 126.178 42.6806 126.203 43.2368V45.9344H125.512V40.4866H126.203V41.7681C126.359 41.3654 126.64 41.0245 127.004 40.7967C127.4 40.5748 127.846 40.4599 128.299 40.4632C128.757 40.4457 129.208 40.5815 129.582 40.8494C129.93 41.1152 130.17 41.5003 130.255 41.9319C130.394 41.4873 130.676 41.1022 131.056 40.8377C131.474 40.5892 131.953 40.4654 132.438 40.4807L132.485 40.4866ZM119.66 41.7798C119.817 41.3931 120.084 41.0615 120.426 40.826C120.789 40.6045 121.204 40.4871 121.628 40.4866V41.142C121.376 41.128 121.125 41.1659 120.888 41.2535C120.651 41.341 120.435 41.4763 120.252 41.6511C119.893 42.0281 119.686 42.5268 119.672 43.0496V45.9753H118.981V40.5276H119.672L119.66 41.7798ZM116.96 40.51V45.9344H116.258V44.6353C116.101 45.0387 115.82 45.381 115.457 45.6125C115.069 45.845 114.625 45.9645 114.174 45.9578C113.896 45.9705 113.62 45.9251 113.361 45.8244C113.102 45.7236 112.867 45.5698 112.67 45.3726C112.483 45.1616 112.339 44.9156 112.246 44.6485C112.154 44.3814 112.114 44.0986 112.13 43.8161V40.4691H112.833V43.6523C112.82 43.8702 112.851 44.0884 112.922 44.2943C112.994 44.5002 113.106 44.6897 113.251 44.8518C113.404 45.0011 113.586 45.1167 113.786 45.1913C113.986 45.2658 114.199 45.2977 114.412 45.2848C114.667 45.2961 114.922 45.2494 115.157 45.1481C115.392 45.0468 115.602 44.8936 115.77 44.6997C116.117 44.2629 116.295 43.7138 116.269 43.1549V40.4807L116.96 40.51ZM108.124 41.0952C107.756 41.0882 107.393 41.1812 107.073 41.3643C106.767 41.5421 106.518 41.8039 106.353 42.1192C106.182 42.4673 106.092 42.8509 106.092 43.2397C106.092 43.6286 106.182 44.0121 106.353 44.3603C106.518 44.6756 106.767 44.9374 107.073 45.1152C107.393 45.2983 107.756 45.3913 108.124 45.3843C108.494 45.3912 108.859 45.2983 109.181 45.1152C109.486 44.9357 109.735 44.6743 109.901 44.3603C110.069 44.011 110.156 43.6279 110.156 43.2397C110.156 42.8516 110.069 42.4685 109.901 42.1192C109.735 41.8052 109.486 41.5438 109.181 41.3643C108.846 41.1709 108.464 41.0756 108.078 41.0893L108.124 41.0952ZM108.124 40.51C108.615 40.5016 109.099 40.6227 109.529 40.8611C109.936 41.0877 110.271 41.4241 110.499 41.8325C110.737 42.2654 110.859 42.7535 110.853 43.2485C110.859 43.7473 110.737 44.2391 110.499 44.6763C110.275 45.089 109.939 45.4282 109.529 45.6535C109.097 45.8841 108.616 46.0046 108.127 46.0046C107.638 46.0046 107.157 45.8841 106.725 45.6535C106.316 45.4282 105.979 45.089 105.755 44.6763C105.514 44.2402 105.392 43.7476 105.401 43.2485C105.392 42.7532 105.515 42.2643 105.755 41.8325C105.983 41.4241 106.318 41.0877 106.725 40.8611C107.136 40.6202 107.602 40.4893 108.078 40.4807L108.124 40.51ZM102.649 46.7594C102.504 47.1266 102.263 47.4479 101.953 47.6898C101.688 47.9035 101.357 48.0173 101.018 48.0117C100.615 48.0179 100.222 47.8858 99.9034 47.6372L100.211 47.1047C100.437 47.2666 100.706 47.3544 100.983 47.3563C101.196 47.3515 101.401 47.273 101.564 47.1339C101.76 46.9632 101.912 46.7461 102.005 46.502L102.231 45.9168L99.9963 40.4983H100.728L102.586 45.1795L104.368 40.4983H105.082L102.649 46.7594ZM94.2835 40.51C94.5632 40.498 94.8424 40.5437 95.104 40.6443C95.3655 40.7449 95.6039 40.8983 95.8046 41.0952C95.9945 41.3047 96.1411 41.5502 96.2358 41.8175C96.3305 42.0847 96.3714 42.3683 96.3561 42.6517V45.9344H95.6536V42.7511C95.6661 42.5319 95.6351 42.3124 95.5623 42.1054C95.4895 41.8984 95.3765 41.7081 95.2298 41.5457C95.0754 41.3982 94.8929 41.2837 94.6933 41.2093C94.4937 41.1348 94.2812 41.102 94.0687 41.1127C93.8054 41.1006 93.5427 41.1467 93.299 41.2477C93.0553 41.3488 92.8364 41.5025 92.6579 41.6979C92.3016 42.1324 92.1193 42.6855 92.147 43.2485V45.9344H91.4561V38.2396H92.0831V41.7915C92.2598 41.3725 92.5631 41.0203 92.9498 40.785C93.3365 40.5497 93.7869 40.4432 94.237 40.4807L94.2835 40.51ZM89.3719 41.7681C89.1578 41.5578 88.9043 41.3927 88.6262 41.2821C88.3481 41.1716 88.051 41.118 87.7521 41.1244C87.3857 41.1208 87.025 41.2158 86.7071 41.3994C86.4012 41.5748 86.1514 41.8347 85.9872 42.1484C85.819 42.4945 85.7316 42.8748 85.7316 43.2602C85.7316 43.6456 85.819 44.0259 85.9872 44.372C86.1513 44.6873 86.401 44.9491 86.7071 45.1269C87.025 45.3105 87.3857 45.4055 87.7521 45.4019C88.0826 45.4048 88.4102 45.3412 88.7159 45.2146C89.0007 45.0942 89.2533 44.9078 89.4532 44.6704L89.848 45.0859C89.6019 45.3818 89.2894 45.6145 88.9365 45.7647C88.5526 45.9277 88.1396 46.0093 87.7231 46.0046C87.238 46.0129 86.7593 45.8918 86.3356 45.6535C85.9337 45.424 85.6038 45.0854 85.3834 44.6763C85.1584 44.2377 85.041 43.7511 85.041 43.2573C85.041 42.7635 85.1584 42.2769 85.3834 41.8383C85.6055 41.4305 85.935 41.0923 86.3356 40.8611C86.7593 40.6228 87.238 40.5017 87.7231 40.51C88.12 40.5039 88.5143 40.5755 88.8842 40.7207C89.2179 40.8504 89.5206 41.0498 89.7725 41.3058L89.3719 41.7681ZM83.5953 40.5334V45.9344H82.8928V44.6353C82.7357 45.0387 82.455 45.381 82.0916 45.6125C81.7039 45.845 81.2597 45.9645 80.8086 45.9578C80.5315 45.9698 80.2549 45.9241 79.9962 45.8234C79.7374 45.7227 79.5021 45.5692 79.3049 45.3726C79.1179 45.1616 78.9739 44.9156 78.8813 44.6485C78.7886 44.3814 78.7491 44.0986 78.765 43.8161V40.4691H79.4675V43.6523C79.455 43.8702 79.4855 44.0884 79.5573 44.2943C79.629 44.5002 79.7406 44.6897 79.8855 44.8518C80.0387 45.0011 80.221 45.1167 80.4209 45.1913C80.6208 45.2658 80.8339 45.2977 81.0466 45.2848C81.3027 45.2945 81.5578 45.2471 81.7936 45.1459C82.0295 45.0448 82.2402 44.8924 82.4109 44.6997C82.7562 44.2623 82.9317 43.7132 82.9044 43.1549V40.4807L83.5953 40.5334ZM74.7649 41.1186C74.3952 41.1117 74.0303 41.2046 73.7083 41.3877C73.4035 41.5672 73.1543 41.8286 72.9884 42.1426C72.8204 42.4919 72.7331 42.875 72.7331 43.2631C72.7331 43.6513 72.8204 44.0344 72.9884 44.3837C73.1543 44.6977 73.4035 44.9591 73.7083 45.1386C74.0303 45.3217 74.3952 45.4146 74.7649 45.4077C75.1328 45.4147 75.4958 45.3217 75.8157 45.1386C76.1218 44.9608 76.3715 44.699 76.5356 44.3837C76.7074 44.0356 76.7969 43.652 76.7969 43.2631C76.7969 42.8743 76.7074 42.4907 76.5356 42.1426C76.3715 41.8273 76.1218 41.5655 75.8157 41.3877C75.4852 41.186 75.1048 41.0825 74.7184 41.0893L74.7649 41.1186ZM74.7649 40.5334C75.2537 40.525 75.7362 40.646 76.1641 40.8845C76.5706 41.1111 76.9064 41.4475 77.1336 41.8559C77.3745 42.2877 77.4968 42.7766 77.4877 43.2719C77.4969 43.771 77.3747 44.2636 77.1336 44.6997C76.9101 45.1124 76.5735 45.4516 76.1641 45.6769C75.7321 45.9075 75.2508 46.028 74.762 46.028C74.2732 46.028 73.7919 45.9075 73.3599 45.6769C72.9258 45.4449 72.5716 45.0859 72.3439 44.647C72.1074 44.2094 71.9874 43.7175 71.9956 43.2193C71.9873 42.7247 72.1074 42.2366 72.3439 41.8032C72.5712 41.3948 72.9069 41.0584 73.3135 40.8318C73.7434 40.5934 74.2278 40.4724 74.7184 40.4807L74.7649 40.5334ZM66.7705 38.7253H72.2452V39.3807H69.8649V45.9344H69.1508V39.328H66.7705V38.7253Z" fill="#0F3574"/>
</g>
<defs>
<clipPath id="clip0_884_2663">
<rect width="203.25" height="48" fill="white"/>
</clipPath>
</defs>
</svg>
